<?xml version="1.0" encoding="UTF-8" standalone="no"?><!DOCTYPE svg PUBLIC "-//W3C//DTD SVG 1.1//EN"
        "http://www.w3.org/Graphics/SVG/1.1/DTD/svg11.dtd">
<svg width="100%" height="100%" viewBox="0 0 465 465" version="1.1" xmlns="http://www.w3.org/2000/svg"
     xmlns:xlink="http://www.w3.org/1999/xlink" xml:space="preserve"
     style="fill-rule:evenodd;clip-rule:evenodd;stroke-linejoin:round;stroke-miterlimit:1.41421;"><g><path d="M405.437,0l-10,0c-4.143,0 -7.5,3.358 -7.5,7.5c0,4.142 3.357,7.5 7.5,7.5l2.5,0l0,435l-2.5,0c-4.143,0 -7.5,3.358 -7.5,7.5c0,4.142 3.357,7.5 7.5,7.5l10,0c4.143,0 7.5,-3.358 7.5,-7.5l0,-450c0,-4.142 -3.358,-7.5 -7.5,-7.5Z" style="fill:#8699ad;fill-rule:nonzero;"/><path
        d="M315.437,140l-205.874,0c-4.143,0 -7.5,3.358 -7.5,7.5c0,4.142 3.357,7.5 7.5,7.5l205.873,0c4.143,0 7.5,-3.358 7.5,-7.5c0,-4.142 -3.357,-7.5 -7.499,-7.5Z"
        style="fill:#8699ad;fill-rule:nonzero;"/><path
        d="M315.437,260l-205.874,0c-4.143,0 -7.5,3.358 -7.5,7.5c0,4.142 3.357,7.5 7.5,7.5l205.873,0c4.143,0 7.5,-3.358 7.5,-7.5c0,-4.142 -3.357,-7.5 -7.499,-7.5Z"
        style="fill:#8699ad;fill-rule:nonzero;"/><path
        d="M315.437,300l-82.937,0c-4.143,0 -7.5,3.358 -7.5,7.5c0,4.142 3.357,7.5 7.5,7.5l82.937,0c4.143,0 7.5,-3.358 7.5,-7.5c0,-4.142 -3.358,-7.5 -7.5,-7.5Z"
        style="fill:#8699ad;fill-rule:nonzero;"/><path
        d="M375.2,-0.766l-235.874,0c-0.251,0 -0.501,0.013 -0.749,0.038c-0.184,0.019 -0.365,0.05 -0.545,0.082c-0.06,0.011 -0.122,0.016 -0.182,0.028c-0.215,0.043 -0.425,0.098 -0.632,0.159c-0.025,0.008 -0.052,0.012 -0.077,0.02c-0.212,0.064 -0.419,0.141 -0.623,0.223c-0.022,0.009 -0.044,0.015 -0.066,0.024c-0.195,0.081 -0.383,0.172 -0.569,0.269c-0.031,0.016 -0.064,0.029 -0.094,0.045c-0.173,0.093 -0.339,0.196 -0.504,0.301c-0.042,0.027 -0.086,0.049 -0.127,0.077c-0.154,0.103 -0.3,0.216 -0.446,0.33c-0.048,0.038 -0.098,0.07 -0.145,0.109c-0.173,0.142 -0.338,0.293 -0.498,0.451c-0.015,0.015 -0.031,0.027 -0.046,0.042l-70,70c-0.018,0.018 -0.033,0.039 -0.051,0.057c-0.153,0.156 -0.301,0.317 -0.44,0.486c-0.044,0.054 -0.082,0.112 -0.125,0.167c-0.108,0.138 -0.215,0.277 -0.313,0.423c-0.033,0.049 -0.06,0.101 -0.092,0.151c-0.1,0.157 -0.199,0.315 -0.287,0.48c-0.02,0.037 -0.035,0.075 -0.054,0.112c-0.093,0.181 -0.182,0.363 -0.261,0.552c-0.011,0.026 -0.019,0.054 -0.03,0.081c-0.08,0.2 -0.155,0.402 -0.218,0.61c-0.008,0.026 -0.013,0.053 -0.021,0.08c-0.061,0.207 -0.116,0.416 -0.158,0.63c-0.012,0.059 -0.017,0.119 -0.027,0.178c-0.032,0.182 -0.064,0.363 -0.082,0.549c-0.025,0.248 -0.038,0.498 -0.038,0.749l0,380c0,4.142 3.357,7.5 7.5,7.5l305.873,0c4.143,0 7.5,-3.358 7.5,-7.5l0,-450.003c0.001,-4.142 -3.357,-7.5 -7.499,-7.5Zm-243.374,25.606l0,44.394l-44.393,0l44.393,-44.394Zm235.874,424.394l-290.874,0l0,-365l62.5,0c4.143,0 7.5,-3.358 7.5,-7.5l0,-62.5l220.873,0l0,435l0.001,0Z"
        style="fill:#8699ad;"/><path
        d="M159.563,85l155.873,0c4.143,0 7.5,-3.358 7.5,-7.5c0,-4.142 -3.357,-7.5 -7.5,-7.5l-155.873,0c-4.143,0 -7.5,3.358 -7.5,7.5c0,4.142 3.358,7.5 7.5,7.5Z"
        style="fill:#8699ad;fill-rule:nonzero;"/><path
        d="M315.437,180l-82.937,0c-4.143,0 -7.5,3.358 -7.5,7.5c0,4.142 3.357,7.5 7.5,7.5l82.937,0c4.143,0 7.5,-3.358 7.5,-7.5c0,-4.142 -3.358,-7.5 -7.5,-7.5Z"
        style="fill:#8699ad;fill-rule:nonzero;"/><path
        d="M315.437,220l-82.937,0c-4.143,0 -7.5,3.358 -7.5,7.5c0,4.142 3.357,7.5 7.5,7.5l82.937,0c4.143,0 7.5,-3.358 7.5,-7.5c0,-4.142 -3.358,-7.5 -7.5,-7.5Z"
        style="fill:#8699ad;fill-rule:nonzero;"/><path
        d="M192.5,315c4.143,0 7.5,-3.358 7.5,-7.5c0,-4.142 -3.357,-7.5 -7.5,-7.5l-82.937,0c-4.143,0 -7.5,3.358 -7.5,7.5l0,80c0,4.142 3.357,7.5 7.5,7.5l82.937,0c4.143,0 7.5,-3.358 7.5,-7.5l0,-50c0,-4.142 -3.357,-7.5 -7.5,-7.5c-4.143,0 -7.5,3.358 -7.5,7.5l0,42.5l-67.937,0l0,-65l75.437,0Z"
        style="fill:#8699ad;fill-rule:nonzero;"/><path
        d="M109.563,235l82.937,0c4.143,0 7.5,-3.358 7.5,-7.5c0,-4.142 -3.357,-7.5 -7.5,-7.5l-82.937,0c-4.143,0 -7.5,3.358 -7.5,7.5c0,4.142 3.358,7.5 7.5,7.5Z"
        style="fill:#8699ad;fill-rule:nonzero;"/><path
        d="M265.437,380l-32.937,0c-4.143,0 -7.5,3.358 -7.5,7.5c0,4.142 3.357,7.5 7.5,7.5l32.937,0c4.143,0 7.5,-3.358 7.5,-7.5c0,-4.142 -3.358,-7.5 -7.5,-7.5Z"
        style="fill:#8699ad;fill-rule:nonzero;"/><path
        d="M315.437,340l-82.937,0c-4.143,0 -7.5,3.358 -7.5,7.5c0,4.142 3.357,7.5 7.5,7.5l82.937,0c4.143,0 7.5,-3.358 7.5,-7.5c0,-4.142 -3.358,-7.5 -7.5,-7.5Z"
        style="fill:#8699ad;fill-rule:nonzero;"/><path
        d="M109.563,195l82.937,0c4.143,0 7.5,-3.358 7.5,-7.5c0,-4.142 -3.357,-7.5 -7.5,-7.5l-82.937,0c-4.143,0 -7.5,3.358 -7.5,7.5c0,4.142 3.358,7.5 7.5,7.5Z"
        style="fill:#8699ad;fill-rule:nonzero;"/></g></svg>